<svg width="1200" height="700" viewBox="0 0 1200 700" fill="none" xmlns="http://www.w3.org/2000/svg">
  <defs>
    <linearGradient id="bg2" x1="0" y1="0" x2="1200" y2="700" gradientUnits="userSpaceOnUse">
      <stop offset="0" stop-color="#12283D"/>
      <stop offset="1" stop-color="#18324B"/>
    </linearGradient>
    <linearGradient id="doc" x1="0" y1="0" x2="0" y2="1">
      <stop offset="0" stop-color="#F7FAFF"/>
      <stop offset="1" stop-color="#E7EEF7"/>
    </linearGradient>
  </defs>
  <rect width="1200" height="700" fill="url(#bg2)"/>
  <rect x="260" y="100" width="680" height="500" rx="24" fill="url(#doc)"/>
  <rect x="320" y="180" width="350" height="26" rx="13" fill="#D2DEE9"/>
  <rect x="320" y="240" width="520" height="18" rx="9" fill="#DCE6F0"/>
  <rect x="320" y="275" width="520" height="18" rx="9" fill="#DCE6F0"/>
  <rect x="320" y="310" width="520" height="18" rx="9" fill="#DCE6F0"/>
  <rect x="320" y="390" width="160" height="120" rx="12" fill="#0D1B2A"/>
  <rect x="500" y="440" width="60" height="70" rx="10" fill="#E8A020"/>
  <rect x="575" y="410" width="60" height="100" rx="10" fill="#D7931E"/>
  <rect x="650" y="360" width="60" height="150" rx="10" fill="#C88416"/>
  <rect x="725" y="330" width="60" height="180" rx="10" fill="#F3BA52"/>
  <circle cx="850" cy="170" r="58" fill="#E8A020"/>
  <path d="M825 170L845 190L882 147" stroke="#0D1B2A" stroke-width="16" stroke-linecap="round" stroke-linejoin="round"/>
</svg>
