<svg width="1600" height="900" viewBox="0 0 1600 900" fill="none" xmlns="http://www.w3.org/2000/svg">
  <defs>
    <linearGradient id="bg5" x1="0" y1="0" x2="1600" y2="900" gradientUnits="userSpaceOnUse">
      <stop offset="0" stop-color="#0E1E2F"/>
      <stop offset="1" stop-color="#1E3A55"/>
    </linearGradient>
    <linearGradient id="sun" x1="0" y1="0" x2="1" y2="1">
      <stop offset="0" stop-color="#F3BA52"/>
      <stop offset="1" stop-color="#E8A020"/>
    </linearGradient>
  </defs>
  <rect width="1600" height="900" fill="url(#bg5)"/>
  <circle cx="1230" cy="170" r="130" fill="url(#sun)" fill-opacity="0.8"/>

  <g stroke="#CBD9E8" stroke-width="8" stroke-linecap="round">
    <path d="M420 800V310"/>
    <path d="M420 370L300 480"/>
    <path d="M420 370L560 430"/>

    <path d="M760 800V260"/>
    <path d="M760 320L640 420"/>
    <path d="M760 320L900 380"/>

    <path d="M1080 800V340"/>
    <path d="M1080 400L960 500"/>
    <path d="M1080 400L1220 450"/>
  </g>

  <path d="M0 790H1600" stroke="#31506C" stroke-width="6"/>
  <g fill="#E8A020" opacity="0.92">
    <rect x="120" y="730" width="90" height="60" rx="8"/>
    <rect x="230" y="710" width="90" height="80" rx="8"/>
    <rect x="340" y="690" width="90" height="100" rx="8"/>
    <rect x="450" y="705" width="90" height="85" rx="8"/>
    <rect x="560" y="740" width="90" height="50" rx="8"/>
  </g>

  <rect x="930" y="670" width="520" height="150" rx="14" fill="#0E2538" fill-opacity="0.82" stroke="#2D4358"/>
  <text x="980" y="735" fill="#E8A020" font-family="Inter, sans-serif" font-size="34" font-weight="700">Operational Reliability</text>
  <text x="980" y="780" fill="#D5E1EE" font-family="Inter, sans-serif" font-size="28">Strategic procurement, ongoing support.</text>
</svg>
