<svg width="1200" height="700" viewBox="0 0 1200 700" fill="none" xmlns="http://www.w3.org/2000/svg">
  <defs>
    <linearGradient id="bg3" x1="0" y1="0" x2="1200" y2="700" gradientUnits="userSpaceOnUse">
      <stop offset="0" stop-color="#0D1B2A"/>
      <stop offset="1" stop-color="#243B52"/>
    </linearGradient>
  </defs>
  <rect width="1200" height="700" fill="url(#bg3)"/>
  <g opacity="0.95">
    <rect x="170" y="90" width="140" height="520" rx="12" fill="#192F45" stroke="#355068"/>
    <rect x="350" y="90" width="140" height="520" rx="12" fill="#192F45" stroke="#355068"/>
    <rect x="530" y="90" width="140" height="520" rx="12" fill="#192F45" stroke="#355068"/>
    <rect x="710" y="90" width="140" height="520" rx="12" fill="#192F45" stroke="#355068"/>
    <rect x="890" y="90" width="140" height="520" rx="12" fill="#192F45" stroke="#355068"/>
  </g>
  <g stroke="#E8A020" stroke-width="3" opacity="0.85">
    <path d="M240 140V560"/>
    <path d="M420 140V560"/>
    <path d="M600 140V560"/>
    <path d="M780 140V560"/>
    <path d="M960 140V560"/>
  </g>
  <path d="M140 560C320 500 420 620 600 550C780 480 880 610 1060 540" stroke="#E8A020" stroke-width="8" stroke-linecap="round"/>
</svg>
